<svg id="Capa_1" data-name="Capa 1" xmlns="http://www.w3.org/2000/svg" viewBox="0 0 762.33 362.04"><defs><style>.cls-1{fill:none;stroke-miterlimit:10;}.cls-1,.cls-2{stroke:#ea5455;stroke-width:2.5px;}.cls-2{fill:#ea5455;}</style></defs><title>contacto_img_rojo</title><rect class="cls-1" x="217.14" y="70.63" width="328.82" height="216.14" rx="13.7"/><rect class="cls-1" x="234.55" y="91.12" width="294" height="176.19" rx="13.7"/><line class="cls-1" x1="234.55" y1="215.33" x2="528.55" y2="215.33"/><rect class="cls-1" x="327.26" y="341.07" width="108.58" height="9.73"/><rect class="cls-1" x="136.32" y="223.95" width="73.24" height="127.02" rx="2.15"/><rect class="cls-1" x="140.93" y="238.8" width="63.51" height="93.73" rx="2.15"/><rect class="cls-1" x="158.85" y="230.35" width="28.94" height="2.82" rx="1.41"/><rect class="cls-1" x="146.05" y="243.41" width="53.78" height="15.37" rx="2.15"/><rect class="cls-1" x="146.05" y="263.64" width="24.07" height="29.19" rx="2.15"/><rect class="cls-1" x="174.99" y="263.64" width="24.84" height="29.19" rx="2.15"/><rect class="cls-1" x="146.05" y="297.71" width="53.78" height="15.11" rx="2.15"/><rect class="cls-1" x="146.05" y="317.42" width="9.48" height="9.48" rx="2.15"/><rect class="cls-1" x="160.9" y="317.42" width="9.22" height="9.22" rx="2.15"/><rect class="cls-1" x="174.99" y="317.42" width="9.48" height="9.48" rx="2.15"/><rect class="cls-1" x="189.33" y="317.42" width="10.5" height="9.22" rx="2.15"/><circle class="cls-1" cx="173.32" cy="341.75" r="4.61"/><circle class="cls-1" cx="381.83" cy="277.56" r="4.95"/><path class="cls-1" d="M428.64,731.68" transform="translate(-281.31 -662.62)"/><path class="cls-1" d="M363.74,980.43" transform="translate(-281.31 -662.62)"/><path class="cls-1" d="M363.74,980.15" transform="translate(-281.31 -662.62)"/><path class="cls-1" d="M429.26,1013.59" transform="translate(-281.31 -662.62)"/><rect class="cls-1" x="653.86" y="267.32" width="64.19" height="83.49" rx="8.02"/><rect class="cls-1" x="1.25" y="350.8" width="759.83" height="9.99"/><circle class="cls-1" cx="624.44" cy="253.06" r="3.93"/><rect class="cls-1" x="563.58" y="88.14" width="122.38" height="171.47" rx="3.76"/><rect class="cls-1" x="577.97" y="103.19" width="93.59" height="142.67" rx="3.29"/><rect class="cls-1" x="641.46" y="226.23" width="24.87" height="15.05" rx="2.89"/><rect class="cls-1" x="583.21" y="226.23" width="24.22" height="15.05" rx="2.6"/><rect class="cls-1" x="612.01" y="226.23" width="24.87" height="15.05" rx="2.5"/><rect class="cls-1" x="583.21" y="186.96" width="82.46" height="34.69" rx="3.83"/><rect class="cls-1" x="641.46" y="108.42" width="24.87" height="33.38" rx="3.28"/><rect class="cls-1" x="612.01" y="108.42" width="24.87" height="33.38" rx="3.48"/><rect class="cls-1" x="583.21" y="108.42" width="24.22" height="33.38" rx="3.59"/><rect class="cls-1" x="628.37" y="147.04" width="37.96" height="34.69" rx="3.13"/><rect class="cls-1" x="583.21" y="147.04" width="38.61" height="34.69" rx="3.17"/><line class="cls-1" x1="347.92" y1="286.78" x2="343.14" y2="341.07"/><line class="cls-1" x1="415.87" y1="286.78" x2="420.65" y2="341.07"/><line class="cls-1" x1="234.55" y1="100.09" x2="528.55" y2="100.09"/><path class="cls-2" d="M606.69,824.35v-2.57l12.38-8.24v3.31L609.65,823v.13l9.42,6.14v3.32Z" transform="translate(-281.31 -662.62)"/><path class="cls-2" d="M627.06,812.53h3.56l-1.76,8.65h7.76l1.74-8.65h3.54l-4.28,21.4h-3.54l1.94-9.64h-7.77l-1.91,9.64h-3.56Z" transform="translate(-281.31 -662.62)"/><path class="cls-2" d="M651.72,815.53h-6.78l.58-3h17.14l-.61,3h-6.77l-3.65,18.4h-3.56Z" transform="translate(-281.31 -662.62)"/><path class="cls-2" d="M666.22,812.53h3.91l.94,8.7.14,3.21h.13l1.35-3.14,4.67-8.77h3.9L677,833.93h-3.14l2.07-10.25c.37-1.88,1.46-5.52,2-7.47h-.13c-.23.45-1.93,4.07-2.34,4.84l-3.68,7.1h-2.39l-.82-6.81c-.06-.43-.32-4.66-.4-5.13h-.13c-.23,2.28-.57,5.5-.88,7L665,833.93h-3.06Z" transform="translate(-281.31 -662.62)"/><path class="cls-2" d="M688.29,812.53h3.54L688.13,831h10.1l-.58,3H684Z" transform="translate(-281.31 -662.62)"/><path class="cls-2" d="M704.34,829.27l9.42-6.14V823l-9.42-6.15v-3.31l12.38,8.24v2.57l-12.38,8.24Z" transform="translate(-281.31 -662.62)"/><circle class="cls-1" cx="502.94" cy="95.99" r="2.13"/><circle class="cls-1" cx="509.85" cy="95.99" r="2.13"/><circle class="cls-1" cx="516.34" cy="95.99" r="2.13"/><line class="cls-1" x1="653.86" y1="345.55" x2="718.06" y2="345.55"/><path class="cls-1" d="M935.4,997.42" transform="translate(-281.31 -662.62)"/><path class="cls-1" d="M935.4,997.42c-13.71,0-24.82-12.21-24.82-27.28s11.11-27.27,24.82-27.27" transform="translate(-281.31 -662.62)"/><path class="cls-1" d="M935.72,993.64" transform="translate(-281.31 -662.62)"/><path class="cls-1" d="M935.4,993.64c-10.5,0-19-10.52-19-23.5s8.51-23.49,19-23.49" transform="translate(-281.31 -662.62)"/><circle class="cls-1" cx="29.36" cy="182.13" r="18.82"/><path class="cls-1" d="M383.13,708.16a16.44,16.44,0,0,0-2.43,8.64,16.19,16.19,0,0,0,16,16.34,14.62,14.62,0,0,0,1.64-.09" transform="translate(-281.31 -662.62)"/><path class="cls-1" d="M374.56,980.4c0-8.51-7.91-15.41-17.67-15.41-9.59,0-17.4,6.66-17.67,15" transform="translate(-281.31 -662.62)"/><path class="cls-1" d="M404.74,1013.39c0-.44,0-.88,0-1.32,0-18.93-21.9-34.28-48.92-34.28S307,993.14,307,1012.07q0,.63,0,1.26" transform="translate(-281.31 -662.62)"/><circle class="cls-1" cx="96.07" cy="331.82" r="4.35"/><line class="cls-1" x1="25.64" y1="346.03" x2="123.17" y2="345.78"/><line class="cls-1" x1="25.64" y1="200.58" x2="64.4" y2="305.69"/><line class="cls-1" x1="42.27" y1="195.81" x2="81.84" y2="303.32"/><line class="cls-1" x1="100.83" y1="60.92" x2="29.36" y2="163.31"/><line class="cls-1" x1="114.49" y1="70.55" x2="44.21" y2="170.58"/><circle class="cls-1" cx="29.36" cy="182.13" r="8.26"/><line class="cls-1" x1="101.88" y1="45.54" x2="120.4" y2="75.89"/><line class="cls-1" x1="91.03" y1="27.75" x2="101.88" y2="45.54"/><line class="cls-1" x1="130.98" y1="132.23" x2="120.4" y2="75.89"/><line class="cls-1" x1="91.03" y1="27.75" x2="127.83" y2="1.01"/><line class="cls-1" x1="165.21" y1="44.74" x2="127.57" y2="1.2"/><line class="cls-1" x1="214.9" y1="73.42" x2="165.21" y2="44.74"/><line class="cls-1" x1="130.98" y1="132.23" x2="214.9" y2="73.42"/><rect class="cls-1" x="374.67" y="693.05" width="28.62" height="5.83" transform="matrix(0.59, 0.81, -0.81, 0.59, 442.04, -690.45)"/><rect class="cls-1" x="385.64" y="685.08" width="28.62" height="5.83" transform="translate(440.12 -702.61) rotate(54)"/><rect class="cls-1" x="395.8" y="677.7" width="28.62" height="5.83" transform="translate(438.33 -713.87) rotate(54)"/><line class="cls-1" x1="25.64" y1="350.77" x2="123.44" y2="350.77"/></svg>